<svg xmlns="http://www.w3.org/2000/svg" version="1.1" xmlns:xlink="http://www.w3.org/1999/xlink" xmlns:svgjs="http://svgjs.dev/svgjs" width="1440" height="560" preserveAspectRatio="none" viewBox="0 0 1440 560"><g mask="url(&quot;#SvgjsMask1028&quot;)" fill="none"><path d="M138.06 0C147.81 39.02 34.41 85.77 35 140C35.38 174.86 90.19 178.18 140 178.18C168.94 178.18 192.16 167.07 192.5 140C193.27 77.98 119.51 36.34 142.22 0C163.26 -33.66 211.11 0 280 0C336.37 0 349.8 -20.13 392.73 0C419.8 12.69 403.33 65.63 420 65.63C438.39 65.63 431.6 14.65 462.86 0C501.6 -18.16 511.43 0 560 0C603.28 0 605.89 -9.38 646.55 0C675.89 6.77 670.24 25.42 700 32.31C766.97 47.82 776.23 55.91 840 44.8C868.94 39.76 857.22 9.02 885.41 0C927.22 -13.38 932.7 0 980 0C1050 0 1050 0 1120 0C1190 0 1190 0 1260 0C1330 0 1330 0 1400 0C1470 0 1505 -35 1540 0C1575 35 1540 70 1540 140C1540 210 1540 210 1540 280C1540 350 1540 350 1540 420C1540 487.25 1541.96 487.91 1540 554.51C1539.9 557.91 1539.25 559.87 1535.88 560C1469.25 562.61 1467.94 560 1400 560C1338.4 560 1306.91 592.75 1276.8 560C1242.56 522.75 1268.27 489.75 1271.29 420C1274.33 349.75 1292.66 348.14 1288.91 280C1287.02 245.7 1282.04 215.12 1260 215.12C1228.46 215.12 1205.78 237.81 1181.76 280C1147.45 340.25 1168.01 352.86 1143.33 420C1137.13 436.86 1136.87 445.11 1120 448C1055.2 459.11 1022.09 416.97 980 448C946.14 472.97 1000.84 533.8 968.09 560C930.84 589.8 904.05 560 840 560C770 560 770 560 700 560C630 560 630 560 560 560C490 560 490 560 420 560C350 560 350 560 280 560C212.33 560 203.43 570.68 144.67 560C133.43 557.96 142.23 534.55 140 534.55C137.78 534.55 146.94 557.97 135.76 560C76.94 570.69 33.42 594.46 0 560C-34.46 524.46 0 490 0 420C0 350 0 350 0 280C0 210 0 210 0 140C0 70 -34.76 35.24 0 0C34.27 -34.76 130.31 -30.98 138.06 0" stroke="rgba(16, 16, 16, 1)" stroke-width="2"></path><path d="M1120 109.12C1103.51 109.12 1092.37 122.09 1092.37 140C1092.37 172.53 1100.8 210 1120 210C1142.99 210 1176.76 169.38 1176.76 140C1176.76 118.94 1145.71 109.12 1120 109.12" stroke="rgba(16, 16, 16, 1)" stroke-width="2"></path><path d="M280 256.67C271.81 256.67 270.19 267.25 264.44 280C233.35 348.92 201.15 366.64 206.32 420C208.93 446.93 243.77 440.59 280 440.59C305.61 440.59 327.53 441.96 330 420C336.56 361.67 318.8 347.75 298.06 280C293.8 266.08 288.62 256.67 280 256.67" stroke="rgba(16, 16, 16, 1)" stroke-width="2"></path><path d="M560 237.67C533.69 237.67 514.5 258.28 514.5 280C514.5 302.78 533.19 326.67 560 326.67C603.83 326.67 655.79 302.44 655.79 280C655.79 257.94 604.34 237.67 560 237.67" stroke="rgba(16, 16, 16, 1)" stroke-width="2"></path><path d="M840 382.54C815.09 382.54 799.08 400.58 799.08 420C799.08 440.76 814.1 462.9 840 462.9C901.06 462.9 973 440.2 973 420C973 400.02 902.05 382.54 840 382.54" stroke="rgba(16, 16, 16, 1)" stroke-width="2"></path><path d="M89.44 0C89.44 28.59 25.82 96.12 0 96.12C-18.9 96.12 -23.16 24.9 0 0C21.56 -23.16 89.44 -19.47 89.44 0" stroke="rgba(16, 16, 16, 1)" stroke-width="2"></path><path d="M280 123.33C241.63 123.33 197.78 39.66 197.78 0C197.78 -22 238.89 0 280 0C313.63 0 347.27 -19.97 347.27 0C347.27 41.7 316.37 123.33 280 123.33" stroke="rgba(16, 16, 16, 1)" stroke-width="2"></path><path d="M506.15 140C496.93 83.94 511.47 59.32 534.29 0C538.4 -10.68 547.14 0 560 0C571.45 0 572.87 -5.08 582.91 0C642.87 30.31 636.81 48.29 700 70.77C765.36 94.02 779.41 109.9 840 91.47C895.76 74.51 881.35 33.55 932.7 0C951.35 -12.19 956.35 0 980 0C1050 0 1050 0 1120 0C1190 0 1190 0 1260 0C1295 0 1295.13 -2.09 1330 0C1365.13 2.11 1365.04 8.4 1400 8.4C1430.04 8.4 1429.83 1.81 1460 0C1499.83 -2.39 1525.45 -25.45 1540 0C1565.45 44.55 1540 70 1540 140C1540 210 1540 210 1540 280C1540 350 1540 350 1540 420C1540 452.94 1551.55 456.79 1540 485.88C1523.76 526.79 1521.04 540.61 1484.41 560C1451.04 577.67 1442.2 560 1400 560C1361.74 560 1336.24 584.73 1323.47 560C1300.11 514.73 1326.87 490.02 1327.74 420C1328.61 350.02 1341.2 347.18 1326.96 280C1311.53 207.18 1291.26 211.69 1268.4 140C1257.78 106.69 1284.79 83.75 1260 70C1210.59 42.58 1179.81 38.06 1120 57.65C1072.97 73.06 1060.34 91.03 1046.32 140C1028.52 202.2 1076.61 223 1056.36 280C1043.45 316.34 1022.16 316.3 980 326.67C913.98 342.92 905.4 346.98 840 333.24C794.31 323.64 798.35 307.44 757.83 280C728.35 260.04 730.16 257.3 700 238.44C631.25 195.44 631.98 192.83 560 156.28C535.05 143.61 509.78 162.08 506.15 140" stroke="rgba(16, 16, 16, 1)" stroke-width="2"></path><path d="M0 205.33C46.68 197.9 72.31 227.51 140 257.73C155.92 264.84 167.22 266.69 167.22 280C167.22 299.13 151.78 300.29 140 322.61C114.84 370.29 105.78 368.4 93.33 420C77.14 487.09 112.09 515.95 82.73 560C65.43 585.95 15.36 586 0 560C-26 516 0 490 0 420C0 350 0 350 0 280C0 242.66 -23.32 209.04 0 205.33" stroke="rgba(16, 16, 16, 1)" stroke-width="2"></path><path d="M410.97 280C410.97 265.93 415.95 252 420 252C423.97 252 427 265.96 427 280C427 295.51 423.98 311.11 420 311.11C415.96 311.11 410.97 295.49 410.97 280" stroke="rgba(16, 16, 16, 1)" stroke-width="2"></path><path d="M542.5 420C551.31 418.56 551.93 420.18 560 416.41C630.68 383.43 640.31 345.34 700 346.5C732.92 347.14 718.21 386.64 745.23 420C788.21 473.07 790.21 472.37 840 519.35C864.4 542.37 893.62 548.69 893.62 560C893.62 569.01 866.81 560 840 560C770 560 770 560 700 560C630 560 630 560 560 560C490 560 490 560 420 560C350 560 350 560 280 560C241.5 560 203 574.56 203 560C203 540.59 235.84 516.64 280 492.06C344.34 456.25 348.23 458.92 420 439.22C479.48 422.89 481.31 429.97 542.5 420" stroke="rgba(16, 16, 16, 1)" stroke-width="2"></path><path d="M40.83 0C40.83 13.05 11.79 43.88 0 43.88C-8.63 43.88 -10.58 11.36 0 0C9.84 -10.58 40.83 -8.89 40.83 0" stroke="rgba(16, 16, 16, 1)" stroke-width="2"></path><path d="M280 40C267.55 40 253.33 12.86 253.33 0C253.33 -7.14 266.66 0 280 0C290.91 0 301.82 -6.48 301.82 0C301.82 13.52 291.8 40 280 40" stroke="rgba(16, 16, 16, 1)" stroke-width="2"></path><path d="M630 140C630 122.08 663.41 109.56 700 109.23C768.41 108.62 781.07 161.12 840 138.13C921.07 106.5 933.39 -0.54 980 0C1013.52 0.39 1000.26 70.82 1000.26 140C1000.26 172.91 1002.65 181.78 980 204.17C931.85 251.78 920.43 244.81 858.67 280C850.43 284.69 848.97 283.94 840 283.94C836.59 283.94 836.86 282.11 833.91 280C766.86 232.02 767.94 230.4 700 183.75C665.99 160.4 630 159.34 630 140" stroke="rgba(16, 16, 16, 1)" stroke-width="2"></path><path d="M1120 6.18C1050.48 6.18 980 1.55 980 0C980 -1.54 1050 0 1120 0C1128.4 0 1136.8 -1.5 1136.8 0C1136.8 1.59 1128.88 6.18 1120 6.18" stroke="rgba(16, 16, 16, 1)" stroke-width="2"></path><path d="M1338.4 140C1345.04 101.76 1362.46 81.66 1400 78.4C1463.26 72.91 1477.46 94.98 1540 122.5C1547.46 125.78 1540 131.25 1540 140C1540 156.15 1544.63 157.03 1540 172.31C1523.42 227.03 1501.51 224.43 1497.58 280C1492.76 348.27 1537.4 355.45 1522.5 420C1505.08 495.45 1484.06 501.58 1432.94 560C1422.81 571.58 1416.47 560 1400 560C1385.07 560 1371.51 572.26 1370.13 560C1363.61 502.26 1385.47 489.85 1384.19 420C1382.9 349.85 1376.4 349.71 1365 280C1353.5 209.71 1327.54 202.56 1338.4 140" stroke="rgba(16, 16, 16, 1)" stroke-width="2"></path><path d="M0 297.5C5.14 297.5 13.45 358.37 20.42 420C28.3 489.62 38.13 502.23 29.7 560C27.92 572.23 2.6 572.25 0 560C-12.25 502.25 0 490 0 420C0 358.75 -5.07 297.5 0 297.5" stroke="rgba(16, 16, 16, 1)" stroke-width="2"></path><path d="M261.33 560C261.33 555.29 268.34 547.36 280 543.53C347.67 521.28 353.56 502.94 420 507.84C465.13 511.17 503.13 545.88 503.13 560C503.13 571.96 461.57 560 420 560C350 560 350 560 280 560C270.66 560 261.33 563.53 261.33 560" stroke="rgba(16, 16, 16, 1)" stroke-width="2"></path></g><defs><mask id="SvgjsMask1028"><rect width="1440" height="560" fill="#ffffff"></rect></mask></defs></svg>