<svg xmlns="http://www.w3.org/2000/svg" version="1.1" xmlns:xlink="http://www.w3.org/1999/xlink" xmlns:svgjs="http://svgjs.dev/svgjs" width="1440" height="560" preserveAspectRatio="none" viewBox="0 0 1440 560"><g mask="url(&quot;#SvgjsMask1027&quot;)" fill="none"><path d="M840 220.68C796.67 230.48 765.53 247.62 765.53 280C765.53 317.06 793.54 348.12 840 359.55C900.77 374.5 909.57 335.69 980 332.75C1049.57 329.85 1060.07 364.23 1120 347.88C1156.74 337.86 1173.33 309.88 1173.33 280C1173.33 257.58 1150.49 250.93 1120 243.28C1053.83 226.67 1050.02 237.12 980 231.47C910.02 225.82 903.9 206.22 840 220.68" stroke="rgba(233, 236, 237, 1)" stroke-width="2"></path><path d="M1400 395.11C1392.32 395.11 1384.86 406.08 1384.86 420C1384.86 465.19 1392.28 513.33 1400 513.33C1407.73 513.33 1415.77 465.08 1415.77 420C1415.77 405.97 1407.77 395.11 1400 395.11" stroke="rgba(233, 236, 237, 1)" stroke-width="2"></path><path d="M88.53 0C123.18 43.12 96.74 70.93 112.5 140C122.47 183.71 126.25 225.56 140 225.56C153.75 225.56 156.08 183.42 167.5 140C185.74 70.64 163.31 44.82 199.32 0C219.56 -25.18 239.66 0 280 0C350 0 350 0 420 0C490 0 490 0 560 0C612.5 0 617.43 -11.89 665 0C687.43 5.61 679.59 21.25 700 35C767.09 80.2 779.19 126.96 840 117.89C896.51 109.46 880.8 45.34 934.65 0C950.8 -13.6 957.33 0 980 0C1050 0 1050 0 1120 0C1190 0 1190 0 1260 0C1330 0 1330 0 1400 0C1444.07 0 1488.15 -24.33 1488.15 0C1488.15 45.67 1460.5 114.3 1400 140C1346.43 162.76 1327.26 96.92 1260 96.92C1222.26 96.92 1224.68 117.96 1190 140C1154.68 162.45 1159.29 177.52 1120 185.9C1054.29 199.92 1049.52 190.89 980 184.8C909.52 178.62 902.06 142.09 840 161.36C762.06 185.57 773.85 262.9 700 271.76C633.85 279.69 634.4 211.35 560 194.94C494.4 180.47 488.19 194.43 420 210C348.19 226.4 350.46 235.89 280 258.87C243.13 270.89 238.31 261.44 205.33 280C168.31 300.83 172.67 337.65 140 337.65C107.34 337.65 111.69 300.83 74.67 280C41.69 261.44 14.75 286.52 0 258.87C-22.59 216.52 0 199.44 0 140C0 70 -27.12 42.88 0 0C17.15 -27.12 66.93 -26.88 88.53 0" stroke="rgba(233, 236, 237, 1)" stroke-width="2"></path><path d="M1256.67 280C1258.99 277.09 1257.34 275.93 1260 273.33C1329 205.93 1345.34 138.12 1400 140C1442.44 141.46 1454.19 218.36 1454.19 280C1454.19 307.02 1420.63 292.56 1400 317.33C1362.32 362.56 1363.68 366.13 1337.57 420C1304.88 487.46 1316.16 499.07 1282.4 560C1277.37 569.07 1271.2 560 1260 560C1250 560 1246.15 567.35 1240 560C1187.58 497.35 1138.81 488 1142.86 420C1147.15 348 1200.42 350.43 1256.67 280" stroke="rgba(233, 236, 237, 1)" stroke-width="2"></path><path d="M206.67 420C248.12 385.64 251.73 338.95 280 338.95C302.14 338.95 307.5 381.34 307.5 420C307.5 442.13 293.63 440.19 280 460.53C246.72 510.19 256.99 529.23 213.68 560C186.99 578.96 176.84 560 140 560C70 560 54.09 575.91 0 560C-15.91 555.32 -14.78 529.9 0 518.82C55.22 477.4 70.62 488.17 140 455C173.95 438.76 178.12 443.67 206.67 420" stroke="rgba(233, 236, 237, 1)" stroke-width="2"></path><path d="M625.33 420C643.88 350.09 655.11 289.77 700 289.77C753.31 289.77 760.29 355.47 821.74 420C830.29 428.98 829.62 436.8 840 436.8C856.25 436.8 856.88 426.9 875 420C926.88 400.24 927.73 383.48 980 383.48C1028.69 383.48 1065.29 383.35 1076.92 420C1093.29 471.61 1071.02 509.42 1036 560C1022.56 579.42 1008 560 980 560C910 560 910 560 840 560C770 560 770 560 700 560C664.14 560 640.93 583.71 628.29 560C603.6 513.71 608.03 485.21 625.33 420" stroke="rgba(233, 236, 237, 1)" stroke-width="2"></path><path d="M1465.07 420C1474.61 367.01 1518.95 326.67 1540 326.67C1556.41 326.67 1540 373.34 1540 420C1540 490 1556.15 506.15 1540 560C1535.15 576.15 1506.47 575.82 1498 560C1469 505.82 1453.61 483.67 1465.07 420" stroke="rgba(233, 236, 237, 1)" stroke-width="2"></path><path d="M37.06 0C56.84 55.4 62.21 76.46 50 140C43.68 172.87 14.48 192.83 0 192.83C-10.52 192.83 0 166.42 0 140C0 70 -14.65 55.35 0 0C3.88 -14.65 31.84 -14.6 37.06 0" stroke="rgba(233, 236, 237, 1)" stroke-width="2"></path><path d="M1120 86.15C1058.13 75.57 1008 24.03 1008 0C1008 -19.05 1064 0 1120 0C1190 0 1190 0 1260 0C1330 0 1330 0 1400 0C1411.66 0 1423.33 -6.44 1423.33 0C1423.33 12.09 1419.44 31.93 1400 37.06C1337.78 53.47 1328.45 31.08 1260 43.08C1188.45 55.62 1184.13 97.11 1120 86.15" stroke="rgba(233, 236, 237, 1)" stroke-width="2"></path><path d="M672 420C676.16 392.92 683.17 371.16 700 371.16C719.99 371.16 721.66 396.76 745.65 420C791.66 464.58 788.8 468.95 840 506.8C883.48 538.95 935 545.79 935 560C935 572.39 887.5 560 840 560C770 560 770 560 700 560C685.49 560 673.38 572.02 670.98 560C659.38 502.02 661.65 487.34 672 420" stroke="rgba(233, 236, 237, 1)" stroke-width="2"></path><path d="M1214.29 420C1214.29 391.57 1239.8 364 1260 364C1277.79 364 1290.27 391.76 1290.27 420C1290.27 450.03 1277.91 480.54 1260 480.54C1239.92 480.54 1214.29 449.84 1214.29 420" stroke="rgba(233, 236, 237, 1)" stroke-width="2"></path><path d="M1514.37 420C1514.37 402.17 1532.8 388.07 1540 388.07C1545.61 388.07 1540 404.03 1540 420C1540 451.38 1546.16 482.76 1540 482.76C1533.35 482.76 1514.37 449.52 1514.37 420" stroke="rgba(233, 236, 237, 1)" stroke-width="2"></path><path d="M70 560C70 555.56 108.26 542.5 140 542.5C149.4 542.5 152.28 554.44 152.28 560C152.28 563.19 146.14 560 140 560C105 560 70 564.31 70 560" stroke="rgba(233, 236, 237, 1)" stroke-width="2"></path></g><defs><mask id="SvgjsMask1027"><rect width="1440" height="560" fill="#ffffff"></rect></mask></defs></svg>