<svg width="140" height="69" viewBox="0 0 140 69" fill="none" xmlns="http://www.w3.org/2000/svg">
<g clip-path="url(#clip0_4330_2)">
<path d="M2.43076 64.3311C3.53076 64.5311 4.33078 65.6312 4.13078 66.7312C3.93078 67.8312 2.83075 68.6312 1.73075 68.4312C0.630751 68.2312 -0.169261 67.1312 0.0307392 66.0312C0.230739 64.8312 1.33076 64.1311 2.43076 64.3311Z" fill="black"/>
<path d="M2.43076 64.3311C3.53076 64.5311 4.33078 65.6312 4.13078 66.7312C3.93078 67.8312 2.83075 68.6312 1.73075 68.4312C0.630751 68.2312 -0.169261 67.1312 0.0307392 66.0312C0.230739 64.8312 1.33076 64.1311 2.43076 64.3311Z" fill="black" fill-opacity="0.2"/>
<path d="M2.43076 48.2311C3.53076 48.4311 4.33078 49.5311 4.13078 50.6311C3.93078 51.7311 2.83075 52.5311 1.73075 52.3311C0.630751 52.1311 -0.169261 51.0311 0.0307392 49.9311C0.230739 48.8311 1.33076 48.0311 2.43076 48.2311Z" fill="black"/>
<path d="M2.43076 48.2311C3.53076 48.4311 4.33078 49.5311 4.13078 50.6311C3.93078 51.7311 2.83075 52.5311 1.73075 52.3311C0.630751 52.1311 -0.169261 51.0311 0.0307392 49.9311C0.230739 48.8311 1.33076 48.0311 2.43076 48.2311Z" fill="black" fill-opacity="0.2"/>
<path d="M2.43076 32.2311C3.53076 32.4311 4.33078 33.5311 4.13078 34.6311C3.93078 35.7311 2.83075 36.5311 1.73075 36.3311C0.630751 36.1311 -0.169261 35.0311 0.0307392 33.9311C0.230739 32.7311 1.33076 31.9311 2.43076 32.2311Z" fill="black"/>
<path d="M2.43076 32.2311C3.53076 32.4311 4.33078 33.5311 4.13078 34.6311C3.93078 35.7311 2.83075 36.5311 1.73075 36.3311C0.630751 36.1311 -0.169261 35.0311 0.0307392 33.9311C0.230739 32.7311 1.33076 31.9311 2.43076 32.2311Z" fill="black" fill-opacity="0.2"/>
<path d="M2.43076 16.1309C3.53076 16.3309 4.33078 17.431 4.13078 18.531C3.93078 19.631 2.83075 20.431 1.73075 20.231C0.630751 20.031 -0.169261 18.931 0.0307392 17.831C0.230739 16.631 1.33076 15.9309 2.43076 16.1309Z" fill="black"/>
<path d="M2.43076 16.1309C3.53076 16.3309 4.33078 17.431 4.13078 18.531C3.93078 19.631 2.83075 20.431 1.73075 20.231C0.630751 20.031 -0.169261 18.931 0.0307392 17.831C0.230739 16.631 1.33076 15.9309 2.43076 16.1309Z" fill="black" fill-opacity="0.2"/>
<path d="M2.43076 0.0307392C3.53076 0.230739 4.33078 1.33076 4.13078 2.43076C3.93078 3.53076 2.83075 4.33071 1.73075 4.13071C0.630751 3.93071 -0.169261 2.83075 0.0307392 1.73075C0.230739 0.630752 1.33076 -0.169261 2.43076 0.0307392Z" fill="black"/>
<path d="M2.43076 0.0307392C3.53076 0.230739 4.33078 1.33076 4.13078 2.43076C3.93078 3.53076 2.83075 4.33071 1.73075 4.13071C0.630751 3.93071 -0.169261 2.83075 0.0307392 1.73075C0.230739 0.630752 1.33076 -0.169261 2.43076 0.0307392Z" fill="black" fill-opacity="0.2"/>
<path d="M15.9308 64.3311C17.0308 64.5311 17.8308 65.6312 17.6308 66.7312C17.4308 67.8312 16.3308 68.6312 15.2308 68.4312C14.1308 68.2312 13.3307 67.1312 13.5307 66.0312C13.7307 64.8312 14.8308 64.1311 15.9308 64.3311Z" fill="black"/>
<path d="M15.9308 64.3311C17.0308 64.5311 17.8308 65.6312 17.6308 66.7312C17.4308 67.8312 16.3308 68.6312 15.2308 68.4312C14.1308 68.2312 13.3307 67.1312 13.5307 66.0312C13.7307 64.8312 14.8308 64.1311 15.9308 64.3311Z" fill="black" fill-opacity="0.2"/>
<path d="M15.9308 48.2311C17.0308 48.4311 17.8308 49.5311 17.6308 50.6311C17.4308 51.7311 16.3308 52.5311 15.2308 52.3311C14.1308 52.1311 13.3307 51.0311 13.5307 49.9311C13.7307 48.8311 14.8308 48.0311 15.9308 48.2311Z" fill="black"/>
<path d="M15.9308 48.2311C17.0308 48.4311 17.8308 49.5311 17.6308 50.6311C17.4308 51.7311 16.3308 52.5311 15.2308 52.3311C14.1308 52.1311 13.3307 51.0311 13.5307 49.9311C13.7307 48.8311 14.8308 48.0311 15.9308 48.2311Z" fill="black" fill-opacity="0.2"/>
<path d="M15.9308 32.2311C17.0308 32.4311 17.8308 33.5311 17.6308 34.6311C17.4308 35.7311 16.3308 36.5311 15.2308 36.3311C14.1308 36.1311 13.3307 35.0311 13.5307 33.9311C13.7307 32.7311 14.8308 31.9311 15.9308 32.2311Z" fill="black"/>
<path d="M15.9308 32.2311C17.0308 32.4311 17.8308 33.5311 17.6308 34.6311C17.4308 35.7311 16.3308 36.5311 15.2308 36.3311C14.1308 36.1311 13.3307 35.0311 13.5307 33.9311C13.7307 32.7311 14.8308 31.9311 15.9308 32.2311Z" fill="black" fill-opacity="0.2"/>
<path d="M15.9308 16.1309C17.0308 16.3309 17.8308 17.431 17.6308 18.531C17.4308 19.631 16.3308 20.431 15.2308 20.231C14.1308 20.031 13.3307 18.931 13.5307 17.831C13.7307 16.631 14.8308 15.9309 15.9308 16.1309Z" fill="black"/>
<path d="M15.9308 16.1309C17.0308 16.3309 17.8308 17.431 17.6308 18.531C17.4308 19.631 16.3308 20.431 15.2308 20.231C14.1308 20.031 13.3307 18.931 13.5307 17.831C13.7307 16.631 14.8308 15.9309 15.9308 16.1309Z" fill="black" fill-opacity="0.2"/>
<path d="M15.9308 0.0309071C17.0308 0.230907 17.8308 1.33093 17.6308 2.43093C17.4308 3.53093 16.3308 4.33088 15.2308 4.13088C14.1308 3.93088 13.3307 2.83092 13.5307 1.73092C13.7307 0.63092 14.8308 -0.169093 15.9308 0.0309071Z" fill="black"/>
<path d="M15.9308 0.0309071C17.0308 0.230907 17.8308 1.33093 17.6308 2.43093C17.4308 3.53093 16.3308 4.33088 15.2308 4.13088C14.1308 3.93088 13.3307 2.83092 13.5307 1.73092C13.7307 0.63092 14.8308 -0.169093 15.9308 0.0309071Z" fill="black" fill-opacity="0.2"/>
<path d="M29.5303 64.3311C30.6303 64.5311 31.4303 65.6312 31.2303 66.7312C31.0303 67.8312 29.9303 68.6312 28.8303 68.4312C27.7303 68.2312 26.9304 67.1312 27.1304 66.0312C27.3304 64.8312 28.3303 64.1311 29.5303 64.3311Z" fill="black"/>
<path d="M29.5303 64.3311C30.6303 64.5311 31.4303 65.6312 31.2303 66.7312C31.0303 67.8312 29.9303 68.6312 28.8303 68.4312C27.7303 68.2312 26.9304 67.1312 27.1304 66.0312C27.3304 64.8312 28.3303 64.1311 29.5303 64.3311Z" fill="black" fill-opacity="0.2"/>
<path d="M29.5303 48.2311C30.6303 48.4311 31.4303 49.5311 31.2303 50.6311C31.0303 51.7311 29.9303 52.5311 28.8303 52.3311C27.7303 52.1311 26.9304 51.0311 27.1304 49.9311C27.3304 48.8311 28.3303 48.0311 29.5303 48.2311Z" fill="black"/>
<path d="M29.5303 48.2311C30.6303 48.4311 31.4303 49.5311 31.2303 50.6311C31.0303 51.7311 29.9303 52.5311 28.8303 52.3311C27.7303 52.1311 26.9304 51.0311 27.1304 49.9311C27.3304 48.8311 28.3303 48.0311 29.5303 48.2311Z" fill="black" fill-opacity="0.2"/>
<path d="M29.5303 32.2311C30.6303 32.4311 31.4303 33.5311 31.2303 34.6311C31.0303 35.7311 29.9303 36.5311 28.8303 36.3311C27.7303 36.1311 26.9304 35.0311 27.1304 33.9311C27.3304 32.7311 28.3303 31.9311 29.5303 32.2311Z" fill="black"/>
<path d="M29.5303 32.2311C30.6303 32.4311 31.4303 33.5311 31.2303 34.6311C31.0303 35.7311 29.9303 36.5311 28.8303 36.3311C27.7303 36.1311 26.9304 35.0311 27.1304 33.9311C27.3304 32.7311 28.3303 31.9311 29.5303 32.2311Z" fill="black" fill-opacity="0.2"/>
<path d="M29.5303 16.1309C30.6303 16.3309 31.4303 17.431 31.2303 18.531C31.0303 19.631 29.9303 20.431 28.8303 20.231C27.7303 20.031 26.9304 18.931 27.1304 17.831C27.3304 16.631 28.3303 15.9309 29.5303 16.1309Z" fill="black"/>
<path d="M29.5303 16.1309C30.6303 16.3309 31.4303 17.431 31.2303 18.531C31.0303 19.631 29.9303 20.431 28.8303 20.231C27.7303 20.031 26.9304 18.931 27.1304 17.831C27.3304 16.631 28.3303 15.9309 29.5303 16.1309Z" fill="black" fill-opacity="0.2"/>
<path d="M29.5303 0.0309071C30.6303 0.230907 31.4303 1.33093 31.2303 2.43093C31.0303 3.53093 29.9303 4.33088 28.8303 4.13088C27.7303 3.93088 26.9304 2.83092 27.1304 1.73092C27.3304 0.63092 28.3303 -0.169093 29.5303 0.0309071Z" fill="black"/>
<path d="M29.5303 0.0309071C30.6303 0.230907 31.4303 1.33093 31.2303 2.43093C31.0303 3.53093 29.9303 4.33088 28.8303 4.13088C27.7303 3.93088 26.9304 2.83092 27.1304 1.73092C27.3304 0.63092 28.3303 -0.169093 29.5303 0.0309071Z" fill="black" fill-opacity="0.2"/>
<path d="M43.0303 64.3311C44.1303 64.5311 44.9303 65.6312 44.7303 66.7312C44.5303 67.8312 43.4302 68.6312 42.3302 68.4312C41.2302 68.2312 40.4304 67.1312 40.6304 66.0312C40.8304 64.8312 41.9303 64.1311 43.0303 64.3311Z" fill="black"/>
<path d="M43.0303 64.3311C44.1303 64.5311 44.9303 65.6312 44.7303 66.7312C44.5303 67.8312 43.4302 68.6312 42.3302 68.4312C41.2302 68.2312 40.4304 67.1312 40.6304 66.0312C40.8304 64.8312 41.9303 64.1311 43.0303 64.3311Z" fill="black" fill-opacity="0.2"/>
<path d="M43.0303 48.2311C44.1303 48.4311 44.9303 49.5311 44.7303 50.6311C44.5303 51.7311 43.4302 52.5311 42.3302 52.3311C41.2302 52.1311 40.4304 51.0311 40.6304 49.9311C40.8304 48.8311 41.9303 48.0311 43.0303 48.2311Z" fill="black"/>
<path d="M43.0303 48.2311C44.1303 48.4311 44.9303 49.5311 44.7303 50.6311C44.5303 51.7311 43.4302 52.5311 42.3302 52.3311C41.2302 52.1311 40.4304 51.0311 40.6304 49.9311C40.8304 48.8311 41.9303 48.0311 43.0303 48.2311Z" fill="black" fill-opacity="0.2"/>
<path d="M43.0303 32.2311C44.1303 32.4311 44.9303 33.5311 44.7303 34.6311C44.5303 35.7311 43.4302 36.5311 42.3302 36.3311C41.2302 36.1311 40.4304 35.0311 40.6304 33.9311C40.8304 32.7311 41.9303 31.9311 43.0303 32.2311Z" fill="black"/>
<path d="M43.0303 32.2311C44.1303 32.4311 44.9303 33.5311 44.7303 34.6311C44.5303 35.7311 43.4302 36.5311 42.3302 36.3311C41.2302 36.1311 40.4304 35.0311 40.6304 33.9311C40.8304 32.7311 41.9303 31.9311 43.0303 32.2311Z" fill="black" fill-opacity="0.2"/>
<path d="M43.0303 16.1309C44.1303 16.3309 44.9303 17.431 44.7303 18.531C44.5303 19.631 43.4302 20.431 42.3302 20.231C41.2302 20.031 40.4304 18.931 40.6304 17.831C40.8304 16.631 41.9303 15.9309 43.0303 16.1309Z" fill="black"/>
<path d="M43.0303 16.1309C44.1303 16.3309 44.9303 17.431 44.7303 18.531C44.5303 19.631 43.4302 20.431 42.3302 20.231C41.2302 20.031 40.4304 18.931 40.6304 17.831C40.8304 16.631 41.9303 15.9309 43.0303 16.1309Z" fill="black" fill-opacity="0.2"/>
<path d="M43.0303 0.0309071C44.1303 0.230907 44.9303 1.33093 44.7303 2.43093C44.5303 3.53093 43.4302 4.33088 42.3302 4.13088C41.2302 3.93088 40.4304 2.83092 40.6304 1.73092C40.8304 0.63092 41.9303 -0.169093 43.0303 0.0309071Z" fill="black"/>
<path d="M43.0303 0.0309071C44.1303 0.230907 44.9303 1.33093 44.7303 2.43093C44.5303 3.53093 43.4302 4.33088 42.3302 4.13088C41.2302 3.93088 40.4304 2.83092 40.6304 1.73092C40.8304 0.63092 41.9303 -0.169093 43.0303 0.0309071Z" fill="black" fill-opacity="0.2"/>
<path d="M56.5303 64.3311C57.6303 64.5311 58.4303 65.6312 58.2303 66.7312C58.0303 67.8312 56.9302 68.6312 55.8302 68.4312C54.7302 68.2312 53.9304 67.1312 54.1304 66.0312C54.3304 64.8312 55.4303 64.1311 56.5303 64.3311Z" fill="black"/>
<path d="M56.5303 64.3311C57.6303 64.5311 58.4303 65.6312 58.2303 66.7312C58.0303 67.8312 56.9302 68.6312 55.8302 68.4312C54.7302 68.2312 53.9304 67.1312 54.1304 66.0312C54.3304 64.8312 55.4303 64.1311 56.5303 64.3311Z" fill="black" fill-opacity="0.2"/>
<path d="M56.5303 48.2311C57.6303 48.4311 58.4303 49.5311 58.2303 50.6311C58.0303 51.7311 56.9302 52.5311 55.8302 52.3311C54.7302 52.1311 53.9304 51.0311 54.1304 49.9311C54.3304 48.8311 55.4303 48.0311 56.5303 48.2311Z" fill="black"/>
<path d="M56.5303 48.2311C57.6303 48.4311 58.4303 49.5311 58.2303 50.6311C58.0303 51.7311 56.9302 52.5311 55.8302 52.3311C54.7302 52.1311 53.9304 51.0311 54.1304 49.9311C54.3304 48.8311 55.4303 48.0311 56.5303 48.2311Z" fill="black" fill-opacity="0.2"/>
<path d="M56.5303 32.2311C57.6303 32.4311 58.4303 33.5311 58.2303 34.6311C58.0303 35.7311 56.9302 36.5311 55.8302 36.3311C54.7302 36.1311 53.9304 35.0311 54.1304 33.9311C54.3304 32.7311 55.4303 31.9311 56.5303 32.2311Z" fill="black"/>
<path d="M56.5303 32.2311C57.6303 32.4311 58.4303 33.5311 58.2303 34.6311C58.0303 35.7311 56.9302 36.5311 55.8302 36.3311C54.7302 36.1311 53.9304 35.0311 54.1304 33.9311C54.3304 32.7311 55.4303 31.9311 56.5303 32.2311Z" fill="black" fill-opacity="0.2"/>
<path d="M56.5303 16.1309C57.6303 16.3309 58.4303 17.431 58.2303 18.531C58.0303 19.631 56.9302 20.431 55.8302 20.231C54.7302 20.031 53.9304 18.931 54.1304 17.831C54.3304 16.631 55.4303 15.9309 56.5303 16.1309Z" fill="black"/>
<path d="M56.5303 16.1309C57.6303 16.3309 58.4303 17.431 58.2303 18.531C58.0303 19.631 56.9302 20.431 55.8302 20.231C54.7302 20.031 53.9304 18.931 54.1304 17.831C54.3304 16.631 55.4303 15.9309 56.5303 16.1309Z" fill="black" fill-opacity="0.2"/>
<path d="M56.5303 0.0309071C57.6303 0.230907 58.4303 1.33093 58.2303 2.43093C58.0303 3.53093 56.9302 4.33088 55.8302 4.13088C54.7302 3.93088 53.9304 2.83092 54.1304 1.73092C54.3304 0.63092 55.4303 -0.169093 56.5303 0.0309071Z" fill="black"/>
<path d="M56.5303 0.0309071C57.6303 0.230907 58.4303 1.33093 58.2303 2.43093C58.0303 3.53093 56.9302 4.33088 55.8302 4.13088C54.7302 3.93088 53.9304 2.83092 54.1304 1.73092C54.3304 0.63092 55.4303 -0.169093 56.5303 0.0309071Z" fill="black" fill-opacity="0.2"/>
<path d="M70.131 64.3311C71.231 64.5311 72.0309 65.6312 71.8309 66.7312C71.6309 67.8312 70.5309 68.6312 69.4309 68.4312C68.3309 68.2312 67.5309 67.1312 67.7309 66.0312C67.8309 64.8312 68.931 64.1311 70.131 64.3311Z" fill="black"/>
<path d="M70.131 64.3311C71.231 64.5311 72.0309 65.6312 71.8309 66.7312C71.6309 67.8312 70.5309 68.6312 69.4309 68.4312C68.3309 68.2312 67.5309 67.1312 67.7309 66.0312C67.8309 64.8312 68.931 64.1311 70.131 64.3311Z" fill="black" fill-opacity="0.2"/>
<path d="M70.131 48.2311C71.231 48.4311 72.0309 49.5311 71.8309 50.6311C71.6309 51.7311 70.5309 52.5311 69.4309 52.3311C68.3309 52.1311 67.5309 51.0311 67.7309 49.9311C67.8309 48.8311 68.931 48.0311 70.131 48.2311Z" fill="black"/>
<path d="M70.131 48.2311C71.231 48.4311 72.0309 49.5311 71.8309 50.6311C71.6309 51.7311 70.5309 52.5311 69.4309 52.3311C68.3309 52.1311 67.5309 51.0311 67.7309 49.9311C67.8309 48.8311 68.931 48.0311 70.131 48.2311Z" fill="black" fill-opacity="0.2"/>
<path d="M70.131 32.2311C71.231 32.4311 72.0309 33.5311 71.8309 34.6311C71.6309 35.7311 70.5309 36.5311 69.4309 36.3311C68.3309 36.1311 67.5309 35.0311 67.7309 33.9311C67.8309 32.7311 68.931 31.9311 70.131 32.2311Z" fill="black"/>
<path d="M70.131 32.2311C71.231 32.4311 72.0309 33.5311 71.8309 34.6311C71.6309 35.7311 70.5309 36.5311 69.4309 36.3311C68.3309 36.1311 67.5309 35.0311 67.7309 33.9311C67.8309 32.7311 68.931 31.9311 70.131 32.2311Z" fill="black" fill-opacity="0.2"/>
<path d="M70.131 16.1309C71.231 16.3309 72.0309 17.431 71.8309 18.531C71.6309 19.631 70.5309 20.431 69.4309 20.231C68.3309 20.031 67.5309 18.931 67.7309 17.831C67.8309 16.631 68.931 15.9309 70.131 16.1309Z" fill="black"/>
<path d="M70.131 16.1309C71.231 16.3309 72.0309 17.431 71.8309 18.531C71.6309 19.631 70.5309 20.431 69.4309 20.231C68.3309 20.031 67.5309 18.931 67.7309 17.831C67.8309 16.631 68.931 15.9309 70.131 16.1309Z" fill="black" fill-opacity="0.2"/>
<path d="M70.131 0.0309071C71.231 0.230907 72.0309 1.33093 71.8309 2.43093C71.6309 3.53093 70.5309 4.33088 69.4309 4.13088C68.3309 3.93088 67.5309 2.83092 67.7309 1.73092C67.8309 0.63092 68.931 -0.169093 70.131 0.0309071Z" fill="black"/>
<path d="M70.131 0.0309071C71.231 0.230907 72.0309 1.33093 71.8309 2.43093C71.6309 3.53093 70.5309 4.33088 69.4309 4.13088C68.3309 3.93088 67.5309 2.83092 67.7309 1.73092C67.8309 0.63092 68.931 -0.169093 70.131 0.0309071Z" fill="black" fill-opacity="0.2"/>
<path d="M83.631 64.3311C84.731 64.5311 85.5309 65.6312 85.3309 66.7312C85.1309 67.8312 84.0309 68.6312 82.9309 68.4312C81.8309 68.2312 81.0309 67.1312 81.2309 66.0312C81.4309 64.8312 82.531 64.1311 83.631 64.3311Z" fill="black"/>
<path d="M83.631 64.3311C84.731 64.5311 85.5309 65.6312 85.3309 66.7312C85.1309 67.8312 84.0309 68.6312 82.9309 68.4312C81.8309 68.2312 81.0309 67.1312 81.2309 66.0312C81.4309 64.8312 82.531 64.1311 83.631 64.3311Z" fill="black" fill-opacity="0.2"/>
<path d="M83.631 48.2311C84.731 48.4311 85.5309 49.5311 85.3309 50.6311C85.1309 51.7311 84.0309 52.5311 82.9309 52.3311C81.8309 52.1311 81.0309 51.0311 81.2309 49.9311C81.4309 48.8311 82.531 48.0311 83.631 48.2311Z" fill="black"/>
<path d="M83.631 48.2311C84.731 48.4311 85.5309 49.5311 85.3309 50.6311C85.1309 51.7311 84.0309 52.5311 82.9309 52.3311C81.8309 52.1311 81.0309 51.0311 81.2309 49.9311C81.4309 48.8311 82.531 48.0311 83.631 48.2311Z" fill="black" fill-opacity="0.2"/>
<path d="M83.631 32.2311C84.731 32.4311 85.5309 33.5311 85.3309 34.6311C85.1309 35.7311 84.0309 36.5311 82.9309 36.3311C81.8309 36.1311 81.0309 35.0311 81.2309 33.9311C81.4309 32.7311 82.531 31.9311 83.631 32.2311Z" fill="black"/>
<path d="M83.631 32.2311C84.731 32.4311 85.5309 33.5311 85.3309 34.6311C85.1309 35.7311 84.0309 36.5311 82.9309 36.3311C81.8309 36.1311 81.0309 35.0311 81.2309 33.9311C81.4309 32.7311 82.531 31.9311 83.631 32.2311Z" fill="black" fill-opacity="0.2"/>
<path d="M83.631 16.1309C84.731 16.3309 85.5309 17.431 85.3309 18.531C85.1309 19.631 84.0309 20.431 82.9309 20.231C81.8309 20.031 81.0309 18.931 81.2309 17.831C81.4309 16.631 82.531 15.9309 83.631 16.1309Z" fill="black"/>
<path d="M83.631 16.1309C84.731 16.3309 85.5309 17.431 85.3309 18.531C85.1309 19.631 84.0309 20.431 82.9309 20.231C81.8309 20.031 81.0309 18.931 81.2309 17.831C81.4309 16.631 82.531 15.9309 83.631 16.1309Z" fill="black" fill-opacity="0.2"/>
<path d="M83.631 0.0309071C84.731 0.230907 85.5309 1.33093 85.3309 2.43093C85.1309 3.53093 84.0309 4.33088 82.9309 4.13088C81.8309 3.93088 81.0309 2.83092 81.2309 1.73092C81.4309 0.63092 82.531 -0.169093 83.631 0.0309071Z" fill="black"/>
<path d="M83.631 0.0309071C84.731 0.230907 85.5309 1.33093 85.3309 2.43093C85.1309 3.53093 84.0309 4.33088 82.9309 4.13088C81.8309 3.93088 81.0309 2.83092 81.2309 1.73092C81.4309 0.63092 82.531 -0.169093 83.631 0.0309071Z" fill="black" fill-opacity="0.2"/>
<path d="M97.131 64.3311C98.231 64.5311 99.0309 65.6312 98.8309 66.7312C98.6309 67.8312 97.5309 68.6312 96.4309 68.4312C95.3309 68.2312 94.5309 67.1312 94.7309 66.0312C94.9309 64.8312 96.031 64.1311 97.131 64.3311Z" fill="black"/>
<path d="M97.131 64.3311C98.231 64.5311 99.0309 65.6312 98.8309 66.7312C98.6309 67.8312 97.5309 68.6312 96.4309 68.4312C95.3309 68.2312 94.5309 67.1312 94.7309 66.0312C94.9309 64.8312 96.031 64.1311 97.131 64.3311Z" fill="black" fill-opacity="0.2"/>
<path d="M97.131 48.2311C98.231 48.4311 99.0309 49.5311 98.8309 50.6311C98.6309 51.7311 97.5309 52.5311 96.4309 52.3311C95.3309 52.1311 94.5309 51.0311 94.7309 49.9311C94.9309 48.8311 96.031 48.0311 97.131 48.2311Z" fill="black"/>
<path d="M97.131 48.2311C98.231 48.4311 99.0309 49.5311 98.8309 50.6311C98.6309 51.7311 97.5309 52.5311 96.4309 52.3311C95.3309 52.1311 94.5309 51.0311 94.7309 49.9311C94.9309 48.8311 96.031 48.0311 97.131 48.2311Z" fill="black" fill-opacity="0.2"/>
<path d="M97.131 32.2311C98.231 32.4311 99.0309 33.5311 98.8309 34.6311C98.6309 35.7311 97.5309 36.5311 96.4309 36.3311C95.3309 36.1311 94.5309 35.0311 94.7309 33.9311C94.9309 32.7311 96.031 31.9311 97.131 32.2311Z" fill="black"/>
<path d="M97.131 32.2311C98.231 32.4311 99.0309 33.5311 98.8309 34.6311C98.6309 35.7311 97.5309 36.5311 96.4309 36.3311C95.3309 36.1311 94.5309 35.0311 94.7309 33.9311C94.9309 32.7311 96.031 31.9311 97.131 32.2311Z" fill="black" fill-opacity="0.2"/>
<path d="M97.131 16.1309C98.231 16.3309 99.0309 17.431 98.8309 18.531C98.6309 19.631 97.5309 20.431 96.4309 20.231C95.3309 20.031 94.5309 18.931 94.7309 17.831C94.9309 16.631 96.031 15.9309 97.131 16.1309Z" fill="black"/>
<path d="M97.131 16.1309C98.231 16.3309 99.0309 17.431 98.8309 18.531C98.6309 19.631 97.5309 20.431 96.4309 20.231C95.3309 20.031 94.5309 18.931 94.7309 17.831C94.9309 16.631 96.031 15.9309 97.131 16.1309Z" fill="black" fill-opacity="0.2"/>
<path d="M97.131 0.0309071C98.231 0.230907 99.0309 1.33093 98.8309 2.43093C98.6309 3.53093 97.5309 4.33088 96.4309 4.13088C95.3309 3.93088 94.5309 2.83092 94.7309 1.73092C94.9309 0.63092 96.031 -0.169093 97.131 0.0309071Z" fill="black"/>
<path d="M97.131 0.0309071C98.231 0.230907 99.0309 1.33093 98.8309 2.43093C98.6309 3.53093 97.5309 4.33088 96.4309 4.13088C95.3309 3.93088 94.5309 2.83092 94.7309 1.73092C94.9309 0.63092 96.031 -0.169093 97.131 0.0309071Z" fill="black" fill-opacity="0.2"/>
<path d="M110.631 64.3311C111.731 64.5311 112.531 65.6312 112.331 66.7312C112.131 67.8312 111.031 68.6312 109.931 68.4312C108.831 68.2312 108.031 67.1312 108.231 66.0312C108.431 64.8312 109.531 64.1311 110.631 64.3311Z" fill="black"/>
<path d="M110.631 64.3311C111.731 64.5311 112.531 65.6312 112.331 66.7312C112.131 67.8312 111.031 68.6312 109.931 68.4312C108.831 68.2312 108.031 67.1312 108.231 66.0312C108.431 64.8312 109.531 64.1311 110.631 64.3311Z" fill="black" fill-opacity="0.2"/>
<path d="M112.43 50.3311C112.43 49.1713 111.49 48.2311 110.33 48.2311C109.171 48.2311 108.23 49.1713 108.23 50.3311C108.23 51.4909 109.171 52.4312 110.33 52.4312C111.49 52.4312 112.43 51.4909 112.43 50.3311Z" fill="black"/>
<path d="M112.43 50.3311C112.43 49.1713 111.49 48.2311 110.33 48.2311C109.171 48.2311 108.23 49.1713 108.23 50.3311C108.23 51.4909 109.171 52.4312 110.33 52.4312C111.49 52.4312 112.43 51.4909 112.43 50.3311Z" fill="black" fill-opacity="0.2"/>
<path d="M112.391 33.9847C112.234 32.8355 111.175 32.0309 110.026 32.1875C108.877 32.344 108.073 33.4025 108.229 34.5517C108.386 35.7008 109.444 36.5054 110.593 36.3488C111.742 36.1923 112.547 35.1338 112.391 33.9847Z" fill="black"/>
<path d="M112.391 33.9847C112.234 32.8355 111.175 32.0309 110.026 32.1875C108.877 32.344 108.073 33.4025 108.229 34.5517C108.386 35.7008 109.444 36.5054 110.593 36.3488C111.742 36.1923 112.547 35.1338 112.391 33.9847Z" fill="black" fill-opacity="0.2"/>
<path d="M110.631 16.1309C111.731 16.3309 112.531 17.431 112.331 18.531C112.131 19.631 111.031 20.431 109.931 20.231C108.831 20.031 108.031 18.931 108.231 17.831C108.431 16.631 109.531 15.9309 110.631 16.1309Z" fill="black"/>
<path d="M110.631 16.1309C111.731 16.3309 112.531 17.431 112.331 18.531C112.131 19.631 111.031 20.431 109.931 20.231C108.831 20.031 108.031 18.931 108.231 17.831C108.431 16.631 109.531 15.9309 110.631 16.1309Z" fill="black" fill-opacity="0.2"/>
<path d="M110.631 0.0309071C111.731 0.230907 112.531 1.33093 112.331 2.43093C112.131 3.53093 111.031 4.33088 109.931 4.13088C108.831 3.93088 108.031 2.83092 108.231 1.73092C108.431 0.63092 109.531 -0.169093 110.631 0.0309071Z" fill="black"/>
<path d="M110.631 0.0309071C111.731 0.230907 112.531 1.33093 112.331 2.43093C112.131 3.53093 111.031 4.33088 109.931 4.13088C108.831 3.93088 108.031 2.83092 108.231 1.73092C108.431 0.63092 109.531 -0.169093 110.631 0.0309071Z" fill="black" fill-opacity="0.2"/>
<path d="M124.232 64.3311C125.332 64.5311 126.132 65.6312 125.932 66.7312C125.732 67.8312 124.632 68.6312 123.532 68.4312C122.432 68.2312 121.632 67.1312 121.832 66.0312C122.032 64.8312 123.032 64.1311 124.232 64.3311Z" fill="black"/>
<path d="M124.232 64.3311C125.332 64.5311 126.132 65.6312 125.932 66.7312C125.732 67.8312 124.632 68.6312 123.532 68.4312C122.432 68.2312 121.632 67.1312 121.832 66.0312C122.032 64.8312 123.032 64.1311 124.232 64.3311Z" fill="black" fill-opacity="0.2"/>
<path d="M125.931 50.3311C125.931 49.1713 124.991 48.2311 123.831 48.2311C122.672 48.2311 121.731 49.1713 121.731 50.3311C121.731 51.4909 122.672 52.4312 123.831 52.4312C124.991 52.4312 125.931 51.4909 125.931 50.3311Z" fill="black"/>
<path d="M125.931 50.3311C125.931 49.1713 124.991 48.2311 123.831 48.2311C122.672 48.2311 121.731 49.1713 121.731 50.3311C121.731 51.4909 122.672 52.4312 123.831 52.4312C124.991 52.4312 125.931 51.4909 125.931 50.3311Z" fill="black" fill-opacity="0.2"/>
<path d="M125.892 33.9891C125.735 32.8399 124.676 32.0353 123.527 32.1918C122.378 32.3484 121.574 33.4069 121.73 34.5561C121.887 35.7052 122.945 36.5098 124.094 36.3532C125.243 36.1966 126.048 35.1382 125.892 33.9891Z" fill="black"/>
<path d="M125.892 33.9891C125.735 32.8399 124.676 32.0353 123.527 32.1918C122.378 32.3484 121.574 33.4069 121.73 34.5561C121.887 35.7052 122.945 36.5098 124.094 36.3532C125.243 36.1966 126.048 35.1382 125.892 33.9891Z" fill="black" fill-opacity="0.2"/>
<path d="M124.232 16.1309C125.332 16.3309 126.132 17.431 125.932 18.531C125.732 19.631 124.632 20.431 123.532 20.231C122.432 20.031 121.632 18.931 121.832 17.831C122.032 16.631 123.032 15.9309 124.232 16.1309Z" fill="black"/>
<path d="M124.232 16.1309C125.332 16.3309 126.132 17.431 125.932 18.531C125.732 19.631 124.632 20.431 123.532 20.231C122.432 20.031 121.632 18.931 121.832 17.831C122.032 16.631 123.032 15.9309 124.232 16.1309Z" fill="black" fill-opacity="0.2"/>
<path d="M124.231 0.0309071C125.331 0.230907 126.131 1.33093 125.931 2.43093C125.731 3.53093 124.631 4.33088 123.531 4.13088C122.431 3.93088 121.631 2.83092 121.831 1.73092C122.031 0.63092 123.031 -0.169093 124.231 0.0309071Z" fill="black"/>
<path d="M124.231 0.0309071C125.331 0.230907 126.131 1.33093 125.931 2.43093C125.731 3.53093 124.631 4.33088 123.531 4.13088C122.431 3.93088 121.631 2.83092 121.831 1.73092C122.031 0.63092 123.031 -0.169093 124.231 0.0309071Z" fill="black" fill-opacity="0.2"/>
<path d="M137.731 64.3311C138.831 64.5311 139.631 65.6312 139.431 66.7312C139.231 67.8312 138.131 68.6312 137.031 68.4312C135.931 68.2312 135.131 67.1312 135.331 66.0312C135.531 64.8312 136.631 64.1311 137.731 64.3311Z" fill="black"/>
<path d="M137.731 64.3311C138.831 64.5311 139.631 65.6312 139.431 66.7312C139.231 67.8312 138.131 68.6312 137.031 68.4312C135.931 68.2312 135.131 67.1312 135.331 66.0312C135.531 64.8312 136.631 64.1311 137.731 64.3311Z" fill="black" fill-opacity="0.2"/>
<path d="M139.43 50.3311C139.43 49.1713 138.49 48.2311 137.33 48.2311C136.171 48.2311 135.23 49.1713 135.23 50.3311C135.23 51.4909 136.171 52.4312 137.33 52.4312C138.49 52.4312 139.43 51.4909 139.43 50.3311Z" fill="black"/>
<path d="M139.43 50.3311C139.43 49.1713 138.49 48.2311 137.33 48.2311C136.171 48.2311 135.23 49.1713 135.23 50.3311C135.23 51.4909 136.171 52.4312 137.33 52.4312C138.49 52.4312 139.43 51.4909 139.43 50.3311Z" fill="black" fill-opacity="0.2"/>
<path d="M139.391 33.9935C139.234 32.8443 138.175 32.0397 137.026 32.1962C135.877 32.3528 135.073 33.4113 135.229 34.5605C135.386 35.7096 136.444 36.5142 137.593 36.3576C138.742 36.201 139.547 35.1426 139.391 33.9935Z" fill="black"/>
<path d="M139.391 33.9935C139.234 32.8443 138.175 32.0397 137.026 32.1962C135.877 32.3528 135.073 33.4113 135.229 34.5605C135.386 35.7096 136.444 36.5142 137.593 36.3576C138.742 36.201 139.547 35.1426 139.391 33.9935Z" fill="black" fill-opacity="0.2"/>
<path d="M137.731 16.1309C138.831 16.3309 139.631 17.431 139.431 18.531C139.231 19.631 138.131 20.431 137.031 20.231C135.931 20.031 135.131 18.931 135.331 17.831C135.531 16.631 136.631 15.9309 137.731 16.1309Z" fill="black"/>
<path d="M137.731 16.1309C138.831 16.3309 139.631 17.431 139.431 18.531C139.231 19.631 138.131 20.431 137.031 20.231C135.931 20.031 135.131 18.931 135.331 17.831C135.531 16.631 136.631 15.9309 137.731 16.1309Z" fill="black" fill-opacity="0.2"/>
<path d="M137.731 0.0309071C138.831 0.230907 139.631 1.33093 139.431 2.43093C139.231 3.53093 138.131 4.33088 137.031 4.13088C135.931 3.93088 135.131 2.83092 135.331 1.73092C135.531 0.63092 136.631 -0.169093 137.731 0.0309071Z" fill="black"/>
<path d="M137.731 0.0309071C138.831 0.230907 139.631 1.33093 139.431 2.43093C139.231 3.53093 138.131 4.33088 137.031 4.13088C135.931 3.93088 135.131 2.83092 135.331 1.73092C135.531 0.63092 136.631 -0.169093 137.731 0.0309071Z" fill="black" fill-opacity="0.2"/>
</g>
<defs>
<clipPath id="clip0_4330_2">
<rect width="140" height="69" fill="white"/>
</clipPath>
</defs>
</svg>
