<svg xmlns="http://www.w3.org/2000/svg" xmlns:xlink="http://www.w3.org/1999/xlink" zoomAndPan="magnify" preserveAspectRatio="xMidYMid meet" version="1.0" viewBox="63.39 156.89 249.83 65.47"><defs><g/><clipPath id="3f977556ac"><path d="M 287.925781 166.429688 L 304.039062 166.429688 L 304.039062 186.445312 L 287.925781 186.445312 Z M 287.925781 166.429688 " clip-rule="nonzero"/></clipPath><clipPath id="61f0bf16a0"><path d="M 295.980469 166.429688 L 304.039062 176.429688 L 295.980469 186.433594 L 287.925781 176.429688 Z M 295.980469 166.429688 " clip-rule="nonzero"/></clipPath><clipPath id="98e624b8e3"><path d="M 278.652344 177.4375 L 294.765625 177.4375 L 294.765625 197.453125 L 278.652344 197.453125 Z M 278.652344 177.4375 " clip-rule="nonzero"/></clipPath><clipPath id="8efaba4c40"><path d="M 286.710938 177.4375 L 294.765625 187.4375 L 286.710938 197.441406 L 278.652344 187.4375 Z M 286.710938 177.4375 " clip-rule="nonzero"/></clipPath><clipPath id="987a148077"><path d="M 297.109375 177.210938 L 313.21875 177.210938 L 313.21875 197.226562 L 297.109375 197.226562 Z M 297.109375 177.210938 " clip-rule="nonzero"/></clipPath><clipPath id="59b5cb6746"><path d="M 305.164062 177.210938 L 313.21875 187.214844 L 305.164062 197.214844 L 297.109375 187.214844 Z M 305.164062 177.210938 " clip-rule="nonzero"/></clipPath><clipPath id="2e35553c83"><path d="M 287.835938 188.21875 L 303.949219 188.21875 L 303.949219 208.234375 L 287.835938 208.234375 Z M 287.835938 188.21875 " clip-rule="nonzero"/></clipPath><clipPath id="3ce482328c"><path d="M 295.890625 188.21875 L 303.949219 198.222656 L 295.890625 208.222656 L 287.835938 198.222656 Z M 295.890625 188.21875 " clip-rule="nonzero"/></clipPath></defs><g fill="#1e1e1e" fill-opacity="1"><g transform="translate(62.197762, 206.361644)"><g><path d="M 14.5 0 L 1.1875 0 L 1.1875 -39.609375 L 20.59375 -39.609375 C 22.28125 -39.609375 23.945312 -39.382812 25.59375 -38.9375 C 27.25 -38.488281 28.753906 -37.742188 30.109375 -36.703125 C 31.472656 -35.660156 32.554688 -34.257812 33.359375 -32.5 C 34.171875 -30.738281 34.578125 -28.566406 34.578125 -25.984375 C 34.578125 -23.898438 34.269531 -22.097656 33.65625 -20.578125 C 33.050781 -19.054688 32.238281 -17.765625 31.21875 -16.703125 C 30.207031 -15.648438 29.0625 -14.804688 27.78125 -14.171875 C 26.5 -13.546875 25.171875 -13.085938 23.796875 -12.796875 C 22.429688 -12.503906 21.101562 -12.359375 19.8125 -12.359375 C 18.664062 -12.359375 17.664062 -12.445312 16.8125 -12.625 C 15.957031 -12.8125 15.1875 -13.066406 14.5 -13.390625 Z M 14.5 -38.21875 L 14.5 -14.53125 L 15.375 -14.53125 C 16.320312 -14.53125 17.117188 -14.800781 17.765625 -15.34375 C 18.410156 -15.882812 18.9375 -16.601562 19.34375 -17.5 C 19.757812 -18.40625 20.078125 -19.382812 20.296875 -20.4375 C 20.523438 -21.488281 20.675781 -22.535156 20.75 -23.578125 C 20.832031 -24.628906 20.875 -25.5625 20.875 -26.375 C 20.875 -27.21875 20.832031 -28.15625 20.75 -29.1875 C 20.675781 -30.21875 20.523438 -31.257812 20.296875 -32.3125 C 20.078125 -33.375 19.757812 -34.351562 19.34375 -35.25 C 18.9375 -36.144531 18.410156 -36.863281 17.765625 -37.40625 C 17.117188 -37.945312 16.320312 -38.21875 15.375 -38.21875 Z M 14.5 -38.21875 "/></g></g></g><g fill="#1e1e1e" fill-opacity="1"><g transform="translate(97.364347, 206.361644)"><g><path d="M 1.1875 -39.609375 L 14.78125 -39.609375 L 14.78125 -7.484375 C 14.78125 -6.378906 14.921875 -5.285156 15.203125 -4.203125 C 15.492188 -3.117188 15.957031 -2.257812 16.59375 -1.625 C 16.007812 -0.988281 15.203125 -0.425781 14.171875 0.0625 C 13.148438 0.550781 12.003906 0.796875 10.734375 0.796875 C 7.617188 0.796875 5.25 -0.0976562 3.625 -1.890625 C 2 -3.691406 1.1875 -6.398438 1.1875 -10.015625 Z M 1.1875 -39.609375 "/></g></g></g><g fill="#1e1e1e" fill-opacity="1"><g transform="translate(113.363558, 206.361644)"><g><path d="M 0.59375 -14.734375 C 0.59375 -17.503906 0.984375 -19.832031 1.765625 -21.71875 C 2.546875 -23.613281 3.59375 -25.128906 4.90625 -26.265625 C 6.226562 -27.398438 7.726562 -28.222656 9.40625 -28.734375 C 11.082031 -29.253906 12.816406 -29.515625 14.609375 -29.515625 L 30.890625 -29.515625 L 30.9375 -7.484375 C 30.9375 -6.378906 31.082031 -5.285156 31.375 -4.203125 C 31.664062 -3.117188 32.125 -2.257812 32.75 -1.625 C 32.175781 -0.988281 31.375 -0.425781 30.34375 0.0625 C 29.3125 0.550781 28.160156 0.796875 26.890625 0.796875 C 25.253906 0.796875 23.90625 0.613281 22.84375 0.25 C 21.789062 -0.101562 20.816406 -0.703125 19.921875 -1.546875 C 19.367188 -0.773438 18.703125 -0.226562 17.921875 0.09375 C 17.140625 0.425781 16.425781 0.625 15.78125 0.6875 C 15.132812 0.757812 14.742188 0.796875 14.609375 0.796875 C 12.710938 0.796875 10.925781 0.515625 9.25 -0.046875 C 7.570312 -0.617188 6.078125 -1.523438 4.765625 -2.765625 C 3.460938 -4.015625 2.441406 -5.617188 1.703125 -7.578125 C 0.960938 -9.546875 0.59375 -11.929688 0.59375 -14.734375 Z M 14.453125 -7.53125 C 14.453125 -6.445312 14.457031 -5.367188 14.46875 -4.296875 C 14.488281 -3.222656 14.601562 -2.335938 14.8125 -1.640625 C 15.019531 -0.941406 15.414062 -0.59375 16 -0.59375 C 16.5 -0.59375 16.847656 -0.816406 17.046875 -1.265625 C 17.242188 -1.710938 17.363281 -2.257812 17.40625 -2.90625 C 17.445312 -3.550781 17.46875 -4.164062 17.46875 -4.75 L 17.421875 -27.640625 C 17.109375 -27.960938 16.78125 -28.125 16.4375 -28.125 C 15.539062 -28.125 14.984375 -27.660156 14.765625 -26.734375 C 14.554688 -25.804688 14.453125 -24.316406 14.453125 -22.265625 Z M 14.453125 -7.53125 "/></g></g></g><g fill="#1e1e1e" fill-opacity="1"><g transform="translate(145.520392, 206.361644)"><g><path d="M 0 -29.515625 L 14.09375 -29.515625 L 22.421875 -13.9375 C 22.867188 -14.519531 23.25 -15.226562 23.5625 -16.0625 C 23.882812 -16.894531 24.046875 -17.640625 24.046875 -18.296875 C 24.046875 -19.242188 23.804688 -20.128906 23.328125 -20.953125 C 22.847656 -21.773438 22.296875 -22.566406 21.671875 -23.328125 C 21.054688 -24.097656 20.507812 -24.882812 20.03125 -25.6875 C 19.5625 -26.488281 19.328125 -27.335938 19.328125 -28.234375 C 19.328125 -28.609375 19.429688 -28.914062 19.640625 -29.15625 C 19.859375 -29.394531 20.070312 -29.515625 20.28125 -29.515625 L 32.40625 -29.515625 L 17 -0.390625 C 17.019531 0.554688 17.285156 1.4375 17.796875 2.25 C 18.316406 3.070312 18.960938 3.804688 19.734375 4.453125 C 20.515625 5.097656 21.300781 5.617188 22.09375 6.015625 C 22.894531 6.410156 23.570312 6.648438 24.125 6.734375 L 17.625 16 C 16.59375 15.8125 15.578125 15.40625 14.578125 14.78125 C 13.578125 14.164062 12.75 13.347656 12.09375 12.328125 C 11.445312 11.316406 11.125 10.125 11.125 8.75 C 11.125 7.695312 11.300781 6.738281 11.65625 5.875 C 12.019531 5.019531 12.460938 4.25 12.984375 3.5625 C 13.515625 2.875 14.050781 2.238281 14.59375 1.65625 C 15.132812 1.082031 15.59375 0.546875 15.96875 0.046875 Z M 0 -29.515625 "/></g></g></g><g fill="#1e1e1e" fill-opacity="1"><g transform="translate(177.914834, 206.361644)"><g><path d="M 1.1875 -39.609375 L 15.453125 -39.609375 L 15.453125 -1.546875 C 18.035156 -1.910156 20.375 -2.84375 22.46875 -4.34375 C 24.570312 -5.851562 26.320312 -7.910156 27.71875 -10.515625 C 29.125 -13.117188 30.0625 -16.21875 30.53125 -19.8125 L 30.9375 -19.8125 L 30.9375 0 L 1.1875 0 Z M 1.1875 -39.609375 "/></g></g></g><g fill="#1e1e1e" fill-opacity="1"><g transform="translate(210.032058, 206.361644)"><g><path d="M 1.625 -29.515625 L 15.890625 -29.515625 L 15.890625 0 L 1.625 0 Z M 1.1875 -36.40625 C 1.1875 -37.90625 1.503906 -39 2.140625 -39.6875 C 2.773438 -40.375 3.664062 -40.800781 4.8125 -40.96875 C 5.957031 -41.144531 7.285156 -41.234375 8.796875 -41.234375 C 10.296875 -41.234375 11.613281 -41.144531 12.75 -40.96875 C 13.882812 -40.800781 14.769531 -40.375 15.40625 -39.6875 C 16.039062 -39 16.359375 -37.90625 16.359375 -36.40625 C 16.359375 -35.1875 16.164062 -34.238281 15.78125 -33.5625 C 15.394531 -32.894531 14.859375 -32.414062 14.171875 -32.125 C 13.492188 -31.832031 12.695312 -31.660156 11.78125 -31.609375 C 10.875 -31.554688 9.878906 -31.53125 8.796875 -31.53125 C 7.679688 -31.53125 6.660156 -31.554688 5.734375 -31.609375 C 4.816406 -31.660156 4.015625 -31.832031 3.328125 -32.125 C 2.640625 -32.414062 2.109375 -32.894531 1.734375 -33.5625 C 1.367188 -34.238281 1.1875 -35.1875 1.1875 -36.40625 Z M 1.1875 -36.40625 "/></g></g></g><g fill="#1e1e1e" fill-opacity="1"><g transform="translate(227.575754, 206.361644)"><g><path d="M 0.59375 -20.59375 C 0.59375 -22.8125 1.179688 -24.632812 2.359375 -26.0625 C 3.535156 -27.488281 5.164062 -28.550781 7.25 -29.25 C 9.332031 -29.945312 11.75 -30.296875 14.5 -30.296875 C 16 -30.296875 17.523438 -30.175781 19.078125 -29.9375 C 20.640625 -29.707031 22.085938 -29.320312 23.421875 -28.78125 C 24.753906 -28.238281 25.832031 -27.507812 26.65625 -26.59375 C 27.476562 -25.6875 27.890625 -24.5625 27.890625 -23.21875 C 27.890625 -22.238281 27.582031 -21.320312 26.96875 -20.46875 C 26.363281 -19.625 25.570312 -19.140625 24.59375 -19.015625 C 24.195312 -19.617188 23.457031 -20.265625 22.375 -20.953125 C 21.289062 -21.640625 20.019531 -22.304688 18.5625 -22.953125 C 17.113281 -23.597656 15.601562 -24.1875 14.03125 -24.71875 C 12.46875 -25.25 11 -25.671875 9.625 -25.984375 C 8.25 -26.296875 7.113281 -26.453125 6.21875 -26.453125 C 5.769531 -26.453125 5.285156 -26.410156 4.765625 -26.328125 C 4.253906 -26.253906 4 -25.992188 4 -25.546875 C 4 -25.097656 4.441406 -24.710938 5.328125 -24.390625 C 6.210938 -24.078125 7.375 -23.753906 8.8125 -23.421875 C 10.25 -23.097656 11.832031 -22.722656 13.5625 -22.296875 C 15.289062 -21.878906 17.019531 -21.351562 18.75 -20.71875 C 20.476562 -20.082031 22.0625 -19.285156 23.5 -18.328125 C 24.945312 -17.378906 26.113281 -16.21875 27 -14.84375 C 27.882812 -13.476562 28.328125 -11.84375 28.328125 -9.9375 C 28.328125 -6.425781 27.046875 -3.757812 24.484375 -1.9375 C 21.921875 -0.113281 18.429688 0.796875 14.015625 0.796875 C 11.617188 0.796875 9.410156 0.476562 7.390625 -0.15625 C 5.367188 -0.789062 3.75 -1.710938 2.53125 -2.921875 C 1.320312 -4.140625 0.71875 -5.632812 0.71875 -7.40625 C 0.71875 -8.175781 0.851562 -8.910156 1.125 -9.609375 C 1.40625 -10.304688 1.796875 -10.890625 2.296875 -11.359375 C 2.796875 -11.835938 3.378906 -12.09375 4.046875 -12.125 C 4.617188 -11.226562 5.40625 -10.3125 6.40625 -9.375 C 7.414062 -8.4375 8.546875 -7.523438 9.796875 -6.640625 C 11.054688 -5.753906 12.359375 -4.953125 13.703125 -4.234375 C 15.046875 -3.523438 16.34375 -2.960938 17.59375 -2.546875 C 18.851562 -2.140625 19.972656 -1.9375 20.953125 -1.9375 C 21.640625 -1.9375 22.117188 -2.066406 22.390625 -2.328125 C 22.671875 -2.597656 22.8125 -2.929688 22.8125 -3.328125 C 22.8125 -3.929688 22.410156 -4.457031 21.609375 -4.90625 C 20.804688 -5.351562 19.742188 -5.800781 18.421875 -6.25 C 17.097656 -6.707031 15.644531 -7.191406 14.0625 -7.703125 C 12.476562 -8.210938 10.898438 -8.820312 9.328125 -9.53125 C 7.753906 -10.25 6.304688 -11.101562 4.984375 -12.09375 C 3.671875 -13.09375 2.609375 -14.285156 1.796875 -15.671875 C 0.992188 -17.054688 0.59375 -18.695312 0.59375 -20.59375 Z M 0.59375 -20.59375 "/></g></g></g><g fill="#1e1e1e" fill-opacity="1"><g transform="translate(256.485228, 206.361644)"><g><path d="M 1.65625 -27.921875 L -0.390625 -27.921875 L -0.390625 -29.46875 C 0.921875 -29.8125 2.34375 -30.363281 3.875 -31.125 C 5.40625 -31.894531 6.910156 -32.773438 8.390625 -33.765625 C 9.867188 -34.753906 11.179688 -35.753906 12.328125 -36.765625 C 13.484375 -37.785156 14.328125 -38.734375 14.859375 -39.609375 L 15.25 -39.609375 L 15.25 -29.515625 L 17.390625 -29.515625 L 17.390625 -27.921875 L 15.25 -27.921875 L 15.25 -7.484375 C 15.25 -6.378906 15.394531 -5.285156 15.6875 -4.203125 C 15.976562 -3.117188 16.441406 -2.257812 17.078125 -1.625 C 16.492188 -0.988281 15.6875 -0.425781 14.65625 0.0625 C 13.625 0.550781 12.472656 0.796875 11.203125 0.796875 C 8.085938 0.796875 5.71875 -0.0976562 4.09375 -1.890625 C 2.46875 -3.691406 1.65625 -6.398438 1.65625 -10.015625 Z M 1.65625 -27.921875 "/></g></g></g><g clip-path="url(#3f977556ac)"><g clip-path="url(#61f0bf16a0)"><path fill="#a43845" d="M 287.925781 166.429688 L 304.039062 166.429688 L 304.039062 186.445312 L 287.925781 186.445312 Z M 287.925781 166.429688 " fill-opacity="1" fill-rule="nonzero"/></g></g><g fill="#1e1e1e" fill-opacity="1"><g transform="translate(63.00339, 164.113408)"><g><path d="M 3.078125 -7.140625 C 3.953125 -7.140625 4.628906 -6.921875 5.109375 -6.484375 C 5.585938 -6.054688 5.828125 -5.472656 5.828125 -4.734375 C 5.828125 -4.304688 5.742188 -3.90625 5.578125 -3.53125 C 5.421875 -3.164062 5.15625 -2.863281 4.78125 -2.625 C 4.40625 -2.382812 3.925781 -2.265625 3.34375 -2.265625 L 2.328125 -2.265625 L 2.328125 0 L 0.921875 0 L 0.921875 -7.140625 Z M 3.328125 -3.625 C 3.585938 -3.625 3.800781 -3.679688 3.96875 -3.796875 C 4.132812 -3.921875 4.25 -4.0625 4.3125 -4.21875 C 4.382812 -4.382812 4.421875 -4.546875 4.421875 -4.703125 C 4.421875 -4.953125 4.347656 -5.191406 4.203125 -5.421875 C 4.054688 -5.660156 3.769531 -5.78125 3.34375 -5.78125 L 2.328125 -5.78125 L 2.328125 -3.625 Z M 3.328125 -3.625 "/></g></g></g><g fill="#1e1e1e" fill-opacity="1"><g transform="translate(70.137545, 164.113408)"><g><path d="M 4.78125 0 L 3.265625 -2.265625 L 2.328125 -2.265625 L 2.328125 0 L 0.921875 0 L 0.921875 -7.140625 L 3.078125 -7.140625 C 3.972656 -7.140625 4.660156 -6.921875 5.140625 -6.484375 C 5.628906 -6.054688 5.875 -5.472656 5.875 -4.734375 C 5.875 -4.296875 5.78125 -3.882812 5.59375 -3.5 C 5.414062 -3.113281 5.132812 -2.8125 4.75 -2.59375 L 6.40625 0 Z M 2.328125 -3.625 L 3.328125 -3.625 C 3.710938 -3.625 3.988281 -3.734375 4.15625 -3.953125 C 4.332031 -4.179688 4.421875 -4.425781 4.421875 -4.6875 C 4.421875 -4.945312 4.347656 -5.191406 4.203125 -5.421875 C 4.054688 -5.660156 3.769531 -5.78125 3.34375 -5.78125 L 2.328125 -5.78125 Z M 2.328125 -3.625 "/></g></g></g><g fill="#1e1e1e" fill-opacity="1"><g transform="translate(77.756266, 164.113408)"><g><path d="M 0.484375 -3.5625 C 0.484375 -4.207031 0.644531 -4.8125 0.96875 -5.375 C 1.300781 -5.9375 1.742188 -6.382812 2.296875 -6.71875 C 2.859375 -7.050781 3.46875 -7.21875 4.125 -7.21875 C 4.78125 -7.21875 5.382812 -7.050781 5.9375 -6.71875 C 6.5 -6.382812 6.945312 -5.9375 7.28125 -5.375 C 7.613281 -4.8125 7.78125 -4.207031 7.78125 -3.5625 C 7.78125 -2.90625 7.613281 -2.296875 7.28125 -1.734375 C 6.945312 -1.179688 6.5 -0.738281 5.9375 -0.40625 C 5.382812 -0.0820312 4.78125 0.078125 4.125 0.078125 C 3.46875 0.078125 2.859375 -0.0820312 2.296875 -0.40625 C 1.742188 -0.738281 1.300781 -1.179688 0.96875 -1.734375 C 0.644531 -2.296875 0.484375 -2.90625 0.484375 -3.5625 Z M 1.9375 -3.5625 C 1.9375 -3.144531 2.035156 -2.757812 2.234375 -2.40625 C 2.429688 -2.0625 2.695312 -1.785156 3.03125 -1.578125 C 3.375 -1.378906 3.753906 -1.28125 4.171875 -1.28125 C 4.578125 -1.28125 4.941406 -1.378906 5.265625 -1.578125 C 5.597656 -1.785156 5.859375 -2.0625 6.046875 -2.40625 C 6.234375 -2.757812 6.328125 -3.144531 6.328125 -3.5625 C 6.328125 -3.988281 6.226562 -4.375 6.03125 -4.71875 C 5.84375 -5.070312 5.582031 -5.347656 5.25 -5.546875 C 4.914062 -5.753906 4.546875 -5.859375 4.140625 -5.859375 C 3.722656 -5.859375 3.347656 -5.753906 3.015625 -5.546875 C 2.679688 -5.347656 2.414062 -5.070312 2.21875 -4.71875 C 2.03125 -4.375 1.9375 -3.988281 1.9375 -3.5625 Z M 1.9375 -3.5625 "/></g></g></g><g fill="#1e1e1e" fill-opacity="1"><g transform="translate(86.983751, 164.113408)"><g><path d="M 2.953125 -1.5 C 2.953125 -0.894531 2.832031 -0.375 2.59375 0.0625 C 2.351562 0.507812 2.007812 0.851562 1.5625 1.09375 C 1.125 1.332031 0.617188 1.460938 0.046875 1.484375 L 0.046875 0.109375 C 1.046875 0.0546875 1.546875 -0.488281 1.546875 -1.53125 L 1.546875 -7.140625 L 2.953125 -7.140625 Z M 2.953125 -1.5 "/></g></g></g><g fill="#1e1e1e" fill-opacity="1"><g transform="translate(91.830747, 164.113408)"><g><path d="M 5.796875 -7.140625 L 5.796875 -5.78125 L 2.328125 -5.78125 L 2.328125 -4.265625 L 5.390625 -4.265625 L 5.390625 -2.90625 L 2.328125 -2.90625 L 2.328125 -1.359375 L 5.921875 -1.359375 L 5.921875 0 L 0.921875 0 L 0.921875 -7.140625 Z M 5.796875 -7.140625 "/></g></g></g><g fill="#1e1e1e" fill-opacity="1"><g transform="translate(99.255639, 164.113408)"><g><path d="M 6.28125 -0.59375 C 6.09375 -0.445312 5.800781 -0.296875 5.40625 -0.140625 C 5.019531 0.00390625 4.59375 0.078125 4.125 0.078125 C 3.382812 0.078125 2.738281 -0.0820312 2.1875 -0.40625 C 1.632812 -0.726562 1.210938 -1.160156 0.921875 -1.703125 C 0.628906 -2.253906 0.484375 -2.859375 0.484375 -3.515625 C 0.484375 -4.234375 0.628906 -4.875 0.921875 -5.4375 C 1.210938 -6 1.617188 -6.4375 2.140625 -6.75 C 2.671875 -7.0625 3.273438 -7.21875 3.953125 -7.21875 C 4.390625 -7.21875 4.789062 -7.160156 5.15625 -7.046875 C 5.53125 -6.929688 5.851562 -6.785156 6.125 -6.609375 L 5.578125 -5.28125 C 5.066406 -5.664062 4.539062 -5.859375 4 -5.859375 C 3.644531 -5.859375 3.304688 -5.757812 2.984375 -5.5625 C 2.671875 -5.363281 2.421875 -5.085938 2.234375 -4.734375 C 2.046875 -4.390625 1.953125 -4.007812 1.953125 -3.59375 C 1.953125 -3.132812 2.035156 -2.726562 2.203125 -2.375 C 2.378906 -2.03125 2.628906 -1.757812 2.953125 -1.5625 C 3.273438 -1.375 3.65625 -1.28125 4.09375 -1.28125 C 4.445312 -1.28125 4.757812 -1.335938 5.03125 -1.453125 C 5.3125 -1.566406 5.535156 -1.703125 5.703125 -1.859375 Z M 6.28125 -0.59375 "/></g></g></g><g fill="#1e1e1e" fill-opacity="1"><g transform="translate(106.980961, 164.113408)"><g><path d="M 5.25 -7.140625 L 5.25 -5.78125 L 3.515625 -5.78125 L 3.515625 0 L 2.109375 0 L 2.109375 -5.78125 L 0.4375 -5.78125 L 0.4375 -7.140625 Z M 5.25 -7.140625 "/></g></g></g><g clip-path="url(#98e624b8e3)"><g clip-path="url(#8efaba4c40)"><path fill="#de5152" d="M 278.652344 177.4375 L 294.765625 177.4375 L 294.765625 197.453125 L 278.652344 197.453125 Z M 278.652344 177.4375 " fill-opacity="1" fill-rule="nonzero"/></g></g><g clip-path="url(#987a148077)"><g clip-path="url(#59b5cb6746)"><path fill="#602b53" d="M 297.109375 177.210938 L 313.21875 177.210938 L 313.21875 197.226562 L 297.109375 197.226562 Z M 297.109375 177.210938 " fill-opacity="1" fill-rule="nonzero"/></g></g><g clip-path="url(#2e35553c83)"><g clip-path="url(#3ce482328c)"><path fill="#edbd68" d="M 287.835938 188.21875 L 303.949219 188.21875 L 303.949219 208.234375 L 287.835938 208.234375 Z M 287.835938 188.21875 " fill-opacity="1" fill-rule="nonzero"/></g></g></svg>